<svg xmlns="http://www.w3.org/2000/svg" width="19.036" height="23" viewBox="0 0 19.036 23">
  <path id="shopping-bag" d="M37.03,22.039l-1.4-15.586a.825.825,0,0,0-.822-.752H31.922V4.4a4.4,4.4,0,1,0-8.8,0V5.7H20.236a.825.825,0,0,0-.822.752L18.008,22.1a.826.826,0,0,0,.822.9H36.216a.825.825,0,0,0,.826-.826A.841.841,0,0,0,37.03,22.039ZM24.775,4.4a2.748,2.748,0,1,1,5.5,0V5.7h-5.5ZM19.734,21.349l1.257-14h2.133V8.829a.826.826,0,1,0,1.651,0V7.352h5.5V8.829a.826.826,0,1,0,1.651,0V7.352h2.131l1.257,14H19.734Z" transform="translate(-18.005)"/>
</svg>
