<svg xmlns="http://www.w3.org/2000/svg" xmlns:xlink="http://www.w3.org/1999/xlink" width="72" height="72" viewBox="0 0 72 72">
  <defs>
    <clipPath id="clip-ic-colck">
      <rect width="72" height="72"/>
    </clipPath>
  </defs>
  <g id="ic-colck" clip-path="url(#clip-ic-colck)">
    <g id="clock" transform="translate(8.691 8.691)">
      <g id="Group_861" data-name="Group 861">
        <g id="Group_860" data-name="Group 860">
          <path id="Path_1398" data-name="Path 1398" d="M177.187,42.968a1.191,1.191,0,0,0,1.187-1.187v-.594a1.187,1.187,0,0,0-2.375,0v.594A1.191,1.191,0,0,0,177.187,42.968Z" transform="translate(-149.878 -34.063)"/>
          <path id="Path_1399" data-name="Path 1399" d="M177.187,308A1.191,1.191,0,0,0,176,309.187v.594a1.187,1.187,0,1,0,2.375,0v-.594A1.191,1.191,0,0,0,177.187,308Z" transform="translate(-149.878 -262.286)"/>
          <path id="Path_1400" data-name="Path 1400" d="M41.781,176h-.594a1.187,1.187,0,0,0,0,2.375h.594a1.187,1.187,0,0,0,0-2.375Z" transform="translate(-34.063 -149.878)"/>
          <path id="Path_1401" data-name="Path 1401" d="M309.781,176h-.594a1.187,1.187,0,0,0,0,2.375h.594a1.187,1.187,0,0,0,0-2.375Z" transform="translate(-262.286 -149.878)"/>
          <path id="Path_1402" data-name="Path 1402" d="M82.019,80.356a1.175,1.175,0,0,0-1.662,1.662l.416.416a1.148,1.148,0,0,0,1.662,0,1.148,1.148,0,0,0,0-1.662Z" transform="translate(-68.126 -68.126)"/>
          <path id="Path_1403" data-name="Path 1403" d="M80.772,269.556l-.416.416a1.148,1.148,0,0,0,0,1.662,1.148,1.148,0,0,0,1.662,0l.416-.416a1.175,1.175,0,0,0-1.662-1.662Z" transform="translate(-68.126 -229.245)"/>
          <path id="Path_1404" data-name="Path 1404" d="M269.972,80.356l-.416.416a1.148,1.148,0,0,0,0,1.662,1.148,1.148,0,0,0,1.662,0l.416-.416a1.175,1.175,0,0,0-1.662-1.662Z" transform="translate(-229.245 -68.126)"/>
          <path id="Path_1405" data-name="Path 1405" d="M178.375,111.992V101.187a1.187,1.187,0,1,0-2.375,0v11.28a1.172,1.172,0,0,0,.356.831l13,13a1.148,1.148,0,0,0,1.662,0,1.148,1.148,0,0,0,0-1.662Z" transform="translate(-149.878 -85.158)" fill="#4c7cff"/>
          <path id="Path_1406" data-name="Path 1406" d="M27.31,0a27.31,27.31,0,1,0,27.31,27.31A27.313,27.313,0,0,0,27.31,0Zm0,52.244A24.935,24.935,0,1,1,52.244,27.31,24.932,24.932,0,0,1,27.31,52.244Z"/>
        </g>
      </g>
    </g>
  </g>
</svg>
