<svg id="Group_937" data-name="Group 937" xmlns="http://www.w3.org/2000/svg" width="16.721" height="16.399" viewBox="0 0 16.721 16.399">
  <g id="date">
    <path id="Path_265" data-name="Path 265" d="M211.691,339.691h.965v1.769h-.965Zm0,0" transform="translate(-204.778 -328.598)" fill="#ccc"/>
    <path id="Path_266" data-name="Path 266" d="M113.23,3.7a.161.161,0,0,0,.161.161h1.286a.161.161,0,0,0,.161-.161V.012A1.132,1.132,0,0,0,114.677,0h-1.286a1.132,1.132,0,0,0-.161.012Zm0,0" transform="translate(-109.533 0)" fill="#ccc"/>
    <path id="Path_267" data-name="Path 267" d="M212.254,285.539h-.161a.4.4,0,1,0,0,.8h.563v-.4A.4.4,0,0,0,212.254,285.539Zm0,0" transform="translate(-204.778 -276.214)" fill="#ccc"/>
    <path id="Path_268" data-name="Path 268" d="M349.539,3.7a.161.161,0,0,0,.161.161h1.286a.161.161,0,0,0,.161-.161V.012A1.132,1.132,0,0,0,350.986,0H349.7a1.133,1.133,0,0,0-.161.012Zm0,0" transform="translate(-338.124 0)" fill="#ccc"/>
    <path id="Path_269" data-name="Path 269" d="M16.721,62.937V60.525a1.449,1.449,0,0,0-1.447-1.447H13.987v1.768a1.127,1.127,0,0,1-1.125,1.125H11.576a1.127,1.127,0,0,1-1.125-1.125V59.078H6.27v1.768a1.127,1.127,0,0,1-1.125,1.125H3.859a1.127,1.127,0,0,1-1.125-1.125V59.078H1.447A1.449,1.449,0,0,0,0,60.525v2.412Zm0,0" transform="translate(0 -57.149)" fill="#ccc"/>
    <path id="Path_270" data-name="Path 270" d="M270.77,339.691h.965v1.769h-.965Zm0,0" transform="translate(-261.927 -328.598)" fill="#ccc"/>
    <path id="Path_271" data-name="Path 271" d="M0,206.77v8.2a1.449,1.449,0,0,0,1.447,1.447H15.274a1.449,1.449,0,0,0,1.447-1.447v-8.2Zm11.093,4.341h-.321v2.251a.482.482,0,0,1-.482.482H6.431a.482.482,0,0,1-.482-.482V211.11H5.627a.482.482,0,1,1,0-.965h.382a1.367,1.367,0,0,1,1.306-1.769h.161a1.361,1.361,0,0,1,.884.326,1.361,1.361,0,0,1,.884-.326h.161a1.367,1.367,0,0,1,1.306,1.769h.382a.482.482,0,1,1,0,.965Zm0,0" transform="translate(0 -200.017)" fill="#ccc"/>
    <path id="Path_272" data-name="Path 272" d="M271.332,285.539h-.161a.4.4,0,0,0-.4.4v.4h.563a.4.4,0,1,0,0-.8Zm0,0" transform="translate(-261.927 -276.214)" fill="#ccc"/>
  </g>
  <rect id="Rectangle_477" data-name="Rectangle 477" width="8" height="5" transform="translate(4.864 9.756)" fill="#ccc"/>
</svg>
