<svg xmlns="http://www.w3.org/2000/svg" width="92.828" height="90.646" viewBox="0 0 92.828 90.646">
  <g id="chat" transform="translate(0 -5.751)">
    <g id="Group_758" data-name="Group 758" transform="translate(0 5.751)">
      <path id="XMLID_284_" d="M194.474,161.316H183.34a.753.753,0,0,1-.74-.74V131.061a.753.753,0,0,1,.74-.74h11.135a.753.753,0,0,1,.74.74v29.516A.753.753,0,0,1,194.474,161.316Z" transform="translate(-147.963 -106.692)" fill="#f9fafc"/>
      <path id="Path_1368" data-name="Path 1368" d="M87.048,108.648a1.724,1.724,0,1,0-3.206-1.271,8.816,8.816,0,0,1-8.138,5.558H39.721a1.761,1.761,0,0,0-1.2.474L22.1,129.134V114.642a1.749,1.749,0,0,0-1.726-1.726H12.178a8.759,8.759,0,0,1-8.745-8.745V65.418a8.759,8.759,0,0,1,8.745-8.745H51.159a1.726,1.726,0,1,0,0-3.452H12.178A12.192,12.192,0,0,0,0,65.4v38.772a12.192,12.192,0,0,0,12.178,12.178h6.487v16.806a1.722,1.722,0,0,0,1.043,1.574,1.686,1.686,0,0,0,.683.133,1.761,1.761,0,0,0,1.2-.474l18.836-18.039h35.3A12.237,12.237,0,0,0,87.048,108.648Z" transform="translate(0 -44.216)" fill="#f9fafc"/>
      <path id="Path_1369" data-name="Path 1369" d="M233.309,34.787a8.606,8.606,0,0,0-3.376-8.308,8.462,8.462,0,0,0-4.951-1.593H212.405V15.894c0-3.983-1.176-6.867-3.49-8.555-3.661-2.694-8.669-1.157-8.877-1.1a1.707,1.707,0,0,0-1.2,1.631V18.246c0,7.986-9.314,10.717-9.693,10.831a.27.27,0,0,1-.114.038,3.208,3.208,0,0,0-2.694-1.461h-9.636A3.214,3.214,0,0,0,173.5,30.86V58.877a3.214,3.214,0,0,0,3.206,3.206h9.636a3.2,3.2,0,0,0,2.276-.948,8.471,8.471,0,0,0,6.013,2.485h25.38c5.748,0,9.409-3.016,10.072-8.27ZM186.114,58.649h-9.162V31.107h9.162Zm43.8-24.394-3.244,20.6v.057c-.436,3.509-2.675,5.292-6.658,5.292h-25.38a5.084,5.084,0,0,1-5.084-5.084V32.453a1.576,1.576,0,0,0,.512-.057c.493-.133,12.216-3.528,12.216-14.151V9.273a6.543,6.543,0,0,1,4.628.835c1.385,1.024,2.068,2.959,2.068,5.785V26.611a1.732,1.732,0,0,0,1.726,1.726H225a4.945,4.945,0,0,1,2.94.948A5.161,5.161,0,0,1,229.913,34.255Z" transform="translate(-140.589 -5.751)" fill="#f9fafc"/>
    </g>
  </g>
</svg>
