<svg xmlns="http://www.w3.org/2000/svg" width="19.494" height="19.494" viewBox="0 0 19.494 19.494">
  <path id="Path_3" data-name="Path 3" d="M9.747,1.733a29.886,29.886,0,0,1,3.9.108,5.023,5.023,0,0,1,1.841.325,3.8,3.8,0,0,1,1.841,1.841,5.023,5.023,0,0,1,.325,1.841c0,.975.108,1.3.108,3.9a29.886,29.886,0,0,1-.108,3.9,5.023,5.023,0,0,1-.325,1.841,3.8,3.8,0,0,1-1.841,1.841,5.023,5.023,0,0,1-1.841.325c-.975,0-1.3.108-3.9.108a29.886,29.886,0,0,1-3.9-.108,5.023,5.023,0,0,1-1.841-.325,3.8,3.8,0,0,1-1.841-1.841,5.023,5.023,0,0,1-.325-1.841c0-.975-.108-1.3-.108-3.9a29.886,29.886,0,0,1,.108-3.9,5.023,5.023,0,0,1,.325-1.841,3.89,3.89,0,0,1,.758-1.083,1.831,1.831,0,0,1,1.083-.758,5.023,5.023,0,0,1,1.841-.325,29.886,29.886,0,0,1,3.9-.108M9.747,0A32,32,0,0,0,5.74.108,6.686,6.686,0,0,0,3.357.542,4.24,4.24,0,0,0,1.625,1.625,4.24,4.24,0,0,0,.542,3.357,4.935,4.935,0,0,0,.108,5.74,32,32,0,0,0,0,9.747a32,32,0,0,0,.108,4.007,6.686,6.686,0,0,0,.433,2.383A4.24,4.24,0,0,0,1.625,17.87a4.24,4.24,0,0,0,1.733,1.083,6.686,6.686,0,0,0,2.383.433,32,32,0,0,0,4.007.108,32,32,0,0,0,4.007-.108,6.686,6.686,0,0,0,2.383-.433,4.544,4.544,0,0,0,2.816-2.816,6.686,6.686,0,0,0,.433-2.383c0-1.083.108-1.408.108-4.007a32,32,0,0,0-.108-4.007,6.686,6.686,0,0,0-.433-2.383A4.24,4.24,0,0,0,17.87,1.625,4.24,4.24,0,0,0,16.137.542,6.686,6.686,0,0,0,13.754.108,32,32,0,0,0,9.747,0m0,4.765A4.9,4.9,0,0,0,4.765,9.747,4.982,4.982,0,1,0,9.747,4.765m0,8.231A3.191,3.191,0,0,1,6.5,9.747,3.191,3.191,0,0,1,9.747,6.5,3.191,3.191,0,0,1,13,9.747,3.191,3.191,0,0,1,9.747,13m5.2-9.639a1.191,1.191,0,1,0,1.191,1.191,1.2,1.2,0,0,0-1.191-1.191" fill="#fff" fill-rule="evenodd"/>
</svg>
