<svg xmlns="http://www.w3.org/2000/svg" width="21.002" height="21" viewBox="0 0 21.002 21">
  <path id="pen" d="M18.59.816a2.892,2.892,0,0,0-4.087,0L13.481,1.845,2.591,12.728l-.023.023c-.006.006-.006.012-.012.012-.012.017-.029.035-.04.052s-.006.006-.006.012-.017.029-.029.046-.006.011-.011.017-.012.029-.018.046-.006.006-.006.012L.031,20.214a.569.569,0,0,0,.139.589.582.582,0,0,0,.41.168.682.682,0,0,0,.185-.029l7.26-2.422c.006,0,.006,0,.012-.006a.209.209,0,0,0,.052-.023.021.021,0,0,0,.012-.006c.017-.012.04-.023.058-.035s.035-.029.052-.04.011-.006.011-.012.018-.011.023-.023L20.156,6.463a2.892,2.892,0,0,0,0-4.086ZM7.839,17.162,13.885,3.07ZM3.25,14.208,1.487,19.479Z" transform="translate(0 0.029)" fill="#0bd2c8"/>
</svg>
