<svg xmlns="http://www.w3.org/2000/svg" xmlns:xlink="http://www.w3.org/1999/xlink" width="64" height="64" viewBox="0 0 64 64">
  <defs>
    <clipPath id="clip-Artboard_1">
      <rect width="64" height="64"/>
    </clipPath>
  </defs>
  <g id="Artboard_1" data-name="Artboard – 1" clip-path="url(#clip-Artboard_1)">
    <g id="_025---Live-Recording" data-name="025---Live-Recording" transform="translate(6.039 10.031)">
      <path id="Shape" d="M26.43,18H2.838A2.838,2.838,0,0,0,0,20.838V35.026a2.838,2.838,0,0,0,2.838,2.838H35a2.838,2.838,0,0,0,2.838-2.838v-5.62A11.41,11.41,0,0,0,26.43,18ZM8.513,35.026H3.784a.946.946,0,0,1-.946-.946V21.78a.946.946,0,0,1,1.892,0V33.135H8.513a.946.946,0,0,1,0,1.892Zm4.73-.946a.946.946,0,0,1-1.892,0V21.78a.946.946,0,1,1,1.892,0ZM23.624,22,20.786,34.3a.946.946,0,0,1-.922.733h-.946a.946.946,0,0,1-.918-.74L15.158,22A.946.946,0,0,1,17,21.571l2.388,10.352L21.78,21.571A.947.947,0,0,1,23.624,22Zm7.591,5.463a.946.946,0,0,1,0,1.892H27.431v3.784h3.784a.946.946,0,0,1,0,1.892h-4.73a.946.946,0,0,1-.946-.946v-12.3a.946.946,0,0,1,.946-.946h4.73a.946.946,0,0,1,0,1.892H27.431v4.73Z" transform="translate(0 -0.92)" fill="#fff"/>
      <path id="Shape-2" data-name="Shape" d="M28.143,9.456a13.236,13.236,0,1,1,18.945,18.4A1.892,1.892,0,1,0,49.6,30.679,17.015,17.015,0,1,0,25.253,7.02a1.892,1.892,0,1,0,2.891,2.437Z" transform="translate(-1.339)" fill="#fff"/>
      <path id="Shape-3" data-name="Shape" d="M35.326,13.851a5.675,5.675,0,0,1,7.883,7.969,1.849,1.849,0,0,0-.085,2.029,1.892,1.892,0,0,0,3.142.2A9.454,9.454,0,0,0,33.131,10.773a1.881,1.881,0,0,0,.306,3.191,1.834,1.834,0,0,0,1.889-.113Z" transform="translate(-1.752 -0.433)" fill="#fff"/>
      <ellipse id="Oval" cx="1.67" cy="2.227" rx="1.67" ry="2.227" transform="translate(35.627 15.789)" fill="#fff"/>
    </g>
  </g>
</svg>
