<svg xmlns="http://www.w3.org/2000/svg" xmlns:xlink="http://www.w3.org/1999/xlink" width="72" height="72" viewBox="0 0 72 72">
  <defs>
    <clipPath id="clip-ic-map">
      <rect width="72" height="72"/>
    </clipPath>
  </defs>
  <g id="ic-map" clip-path="url(#clip-ic-map)">
    <g id="Group_995" data-name="Group 995" transform="translate(-396 -402.5)">
      <path id="Path_1407" data-name="Path 1407" d="M-13617.61-21278l-14.628-17.65s3.248-18.148,13.1-17.852,12.156,4.646,12.156,4.646l4.9,13.205-15.524,17.65" transform="translate(14050 21723)" fill="#4c7cff"/>
      <circle id="Ellipse_58" data-name="Ellipse 58" cx="8.5" cy="8.5" r="8.5" transform="translate(424 415)" fill="#fff"/>
      <g id="map" transform="translate(353.063 408)">
        <g id="Group_835" data-name="Group 835" transform="translate(55.937 0)">
          <g id="Group_834" data-name="Group 834" transform="translate(0)">
            <path id="Path_1385" data-name="Path 1385" d="M101.246,24.242h0a3.8,3.8,0,0,0-3.27-.7l-6.113,1.513A15.651,15.651,0,1,0,63.849,13.513a15.945,15.945,0,0,0,1.085,8.241l-6.383,2.127A3.815,3.815,0,0,0,55.937,27.5V54.532a3.813,3.813,0,0,0,5.031,3.618L72.18,54.413l14.509,6.477a1.232,1.232,0,0,0,.808.074v0l12.269-2.879a3.8,3.8,0,0,0,2.948-3.712V27.245A3.8,3.8,0,0,0,101.246,24.242ZM70.937,52.134l-10.791,3.6a1.266,1.266,0,0,1-1.667-1.206V27.5a1.276,1.276,0,0,1,.876-1.206l6.764-2.254a15.341,15.341,0,0,0,2.136,2.727l2.682,2.7Zm15,5.636L73.479,52.226V32.009l4.929,4.91a1.289,1.289,0,0,0,1.812,0l5.716-5.712Zm-6.61-23.549-9.253-9.253a13.555,13.555,0,0,1-2.254-3.05,13.369,13.369,0,0,1-1.451-8.06A13.114,13.114,0,1,1,88.58,24.968Zm20.847,20.154a1.272,1.272,0,0,1-.987,1.238L88.479,58.125V28.664l.2-.2,9.906-2.453a1.282,1.282,0,0,1,1.59,1.234v27.13Z" transform="translate(-55.937 0)"/>
          </g>
        </g>
        <g id="Group_837" data-name="Group 837" transform="translate(70.594 6.387)">
          <g id="Group_836" data-name="Group 836" transform="translate(0)">
            <path id="Path_1386" data-name="Path 1386" d="M179.97,50.242a8.733,8.733,0,1,0,8.733,8.733A8.733,8.733,0,0,0,179.97,50.242Zm0,14.924a6.191,6.191,0,1,1,6.191-6.191A6.191,6.191,0,0,1,179.97,65.167Z" transform="translate(-171.237 -50.242)"/>
          </g>
        </g>
      </g>
    </g>
  </g>
</svg>
