<svg xmlns="http://www.w3.org/2000/svg" width="78.559" height="78.556" viewBox="0 0 78.559 78.556">
  <g id="Group_133" data-name="Group 133" transform="translate(-376 -2408.587)">
    <g id="Group_125" data-name="Group 125" transform="translate(0 2.587)">
      <g id="new_2_" data-name="new (2)" transform="translate(454.559 2484.556) rotate(180)">
        <path id="Path_278" data-name="Path 278" d="M78.081,33.21,45.349.478A1.637,1.637,0,0,0,44.191,0H1.64A1.637,1.637,0,0,0,.481,2.8L75.764,78.078a1.638,1.638,0,0,0,2.8-1.159V34.368A1.636,1.636,0,0,0,78.081,33.21Z" transform="translate(0)" fill="#0bd2c8"/>
      </g>
    </g>
    <g id="Group_124" data-name="Group 124" transform="translate(430.074 2479.38) rotate(180)">
      <path id="Path_279" data-name="Path 279" d="M179.257,62.972a1.69,1.69,0,0,1-1.657-2.029l2.285-11.431-6.194,6.2a1.69,1.69,0,0,1-2.39-2.39l10.143-10.143a1.69,1.69,0,0,1,2.853,1.525l-2.285,11.431,6.2-6.194a1.691,1.691,0,1,1,2.432,2.349l-.042.042L180.457,62.478A1.69,1.69,0,0,1,179.257,62.972Z" transform="translate(218.147 86.639) rotate(180)" fill="#fafafa"/>
      <path id="Path_280" data-name="Path 280" d="M252.107,135.948a1.69,1.69,0,0,1-1.2-.494l-5.071-5.071a1.691,1.691,0,0,1,0-2.39l10.143-10.143a1.691,1.691,0,0,1,2.39,0l5.071,5.071a1.691,1.691,0,0,1-2.349,2.432l-.042-.042-3.875-3.878-7.753,7.753,3.875,3.875a1.691,1.691,0,0,1-1.194,2.887Z" transform="translate(280.855 149.472) rotate(180)" fill="#fafafa"/>
      <path id="Path_281" data-name="Path 281" d="M282.525,156.224a1.69,1.69,0,0,1-1.2-.494l-3.381-3.381a1.69,1.69,0,0,1,2.39-2.39l3.381,3.381a1.691,1.691,0,0,1-1.193,2.884Z" transform="translate(307.892 176.51) rotate(180)" fill="#fafafa"/>
      <path id="Path_282" data-name="Path 282" d="M328.49,194.346a1.69,1.69,0,0,1-1.6-2.225l2.313-6.934-6.934,2.313a1.711,1.711,0,0,1-1.812-.5,1.691,1.691,0,0,1-.233-1.863l6.762-13.524a1.691,1.691,0,1,1,3.026,1.511h0L325.072,183l6.272-2.089a1.708,1.708,0,0,1,1.731.409,1.69,1.69,0,0,1,.409,1.731l-2.089,6.268,9.872-4.936a1.691,1.691,0,1,1,1.511,3.026l-13.524,6.762A1.69,1.69,0,0,1,328.49,194.346Z" transform="translate(343.714 194.346) rotate(180)" fill="#fafafa"/>
    </g>
  </g>
</svg>
