<svg xmlns="http://www.w3.org/2000/svg" xmlns:xlink="http://www.w3.org/1999/xlink" width="64" height="64" viewBox="0 0 64 64">
  <defs>
    <clipPath id="clip-Artboard_1">
      <rect width="64" height="64"/>
    </clipPath>
  </defs>
  <g id="Artboard_1" data-name="Artboard – 1" clip-path="url(#clip-Artboard_1)">
    <g id="reading" transform="translate(2.104 10.857)">
      <g id="Group_146" data-name="Group 146" transform="translate(10.2)">
        <circle id="Ellipse_38" data-name="Ellipse 38" cx="8.933" cy="8.933" r="8.933" transform="translate(10.743 0)" fill="#fff"/>
        <path id="Path_342" data-name="Path 342" d="M81.2,429.324v1.854h.044a4.767,4.767,0,1,1,0,9.534H81.2V447.1a1.1,1.1,0,0,0,1.1,1.1,1.3,1.3,0,0,0,.225-.022,37.385,37.385,0,0,1,6.947-.561,28.5,28.5,0,0,1,8.271.918,28.461,28.461,0,0,1,8.271-.918,37,37,0,0,1,6.947.561,1.3,1.3,0,0,0,.225.022,1.1,1.1,0,0,0,1.1-1.1v-6.391a4.767,4.767,0,1,1,0-9.534v-1.853a1.1,1.1,0,0,0-.772-1.05,25.868,25.868,0,0,0-7.5-1.174,25.36,25.36,0,0,0-8.271,1.439,25.36,25.36,0,0,0-8.271-1.439,25.865,25.865,0,0,0-7.5,1.174,1.1,1.1,0,0,0-.772,1.052Z" transform="translate(-78.066 -408.249)" fill="#fff"/>
        <path id="Path_343" data-name="Path 343" d="M12.672,555.579a3.091,3.091,0,0,0-.662.229,3.179,3.179,0,0,0,0,5.738,3.087,3.087,0,0,0,.662.229,3.275,3.275,0,0,0,.662.079h.044a3.178,3.178,0,0,0,0-6.356h-.044A3.3,3.3,0,0,0,12.672,555.579Z" transform="translate(-10.2 -530.982)" fill="#fff"/>
        <path id="Path_344" data-name="Path 344" d="M758.7,558.486a3.176,3.176,0,0,0,3.178,3.178,2.98,2.98,0,0,0,.662-.071,3.062,3.062,0,0,0,.662-.221,3.181,3.181,0,0,0,0-5.782,3.082,3.082,0,0,0-.662-.221,3.271,3.271,0,0,0-.662-.071,3.192,3.192,0,0,0-3.178,3.188Z" transform="translate(-725.664 -530.79)" fill="#fff"/>
      </g>
    </g>
  </g>
</svg>
