<svg xmlns="http://www.w3.org/2000/svg" width="12.324" height="12.323" viewBox="0 0 12.324 12.323">
  <path id="pen" d="M10.909.467a1.7,1.7,0,0,0-2.4,0l-.6.6L1.52,7.457l-.014.014s0,.007-.007.007-.017.02-.024.03,0,0,0,.007l-.017.027s0,.007-.007.01-.007.017-.01.027,0,0,0,.007L.018,11.849A.334.334,0,0,0,.1,12.2a.341.341,0,0,0,.241.1.4.4,0,0,0,.109-.017l4.26-1.421s0,0,.007,0a.123.123,0,0,0,.03-.014l.007,0,.034-.02c.01-.007.02-.017.031-.024s.007,0,.007-.007.01-.007.014-.014l6.99-6.99a1.7,1.7,0,0,0,0-2.4ZM4.6,10.059,8.148,1.79ZM1.907,8.325.873,11.419Z" transform="translate(0 0.029)" fill="#fff"/>
</svg>
