<svg xmlns="http://www.w3.org/2000/svg" width="27.036" height="32.665" viewBox="0 0 27.036 32.665">
  <path id="shopping-bag" d="M45.025,31.3,43.037,9.165A1.172,1.172,0,0,0,41.869,8.1h-4.1V6.248a6.248,6.248,0,1,0-12.5,0V8.1h-4.1a1.172,1.172,0,0,0-1.168,1.068l-2,22.223a1.172,1.172,0,0,0,1.168,1.277H43.868a1.172,1.172,0,0,0,1.172-1.172A1.2,1.2,0,0,0,45.025,31.3ZM27.62,6.248a3.9,3.9,0,1,1,7.806,0V8.1H27.62ZM20.46,30.32l1.785-19.878h3.03v2.1a1.172,1.172,0,0,0,2.345,0v-2.1h7.806v2.1a1.172,1.172,0,0,0,2.345,0v-2.1H40.8L42.583,30.32H20.46Z" transform="translate(-18.005)"/>
</svg>
