<svg xmlns="http://www.w3.org/2000/svg" width="44.081" height="44.081" viewBox="0 0 44.081 44.081">
  <path id="Path_1366" data-name="Path 1366" d="M27.811,0H20.6a7.714,7.714,0,0,0-4.82,2l-14.8,14.8a3.365,3.365,0,0,0,0,4.749l8.645,8.645a3.366,3.366,0,0,0,4.75,0l14.8-14.8a7.714,7.714,0,0,0,2-4.82V3.358A3.363,3.363,0,0,0,27.811,0Zm-14.9,23.459c-.906.906-2.054,1.141-2.455.74a.714.714,0,0,1-.09-.879c.283-.283,1,.062,1.708-.643.415-.415.588-.961.173-1.376-1.038-1.038-2.94,1.5-4.579-.138-1.03-1.031-.5-2.269.3-3.064.408-.408,1.411-1.217,1.867-.761.159.159.367.588.118.837-.215.214-.636.111-1.218.692-.5.5-.581.982-.249,1.314.858.858,2.78-1.66,4.572.132A2.067,2.067,0,0,1,12.907,23.459ZM18.039,18.2c-.152.152-.318.221-.484.125l-1.183-.657-1.584,1.584.657,1.183c.1.166.027.332-.125.484-.242.242-.719.415-.941.194a.578.578,0,0,1-.055-.083l-3.016-5.685a.8.8,0,0,1,.27-.878.8.8,0,0,1,.885-.277l5.686,3.016a.433.433,0,0,1,.083.055C18.447,17.477,18.282,17.961,18.039,18.2Zm3.631-3.631-2.193,2.193c-.2.2-.491.3-.678.111l-4.5-4.5c-.194-.194-.055-.5.173-.726s.533-.366.726-.173l3.991,3.991,1.688-1.688c.18-.18.463-.076.664.125S21.85,14.392,21.67,14.572Zm3.617-3.617-2.462,2.462c-.2.2-.491.3-.678.111L17.659,9.039c-.187-.187-.09-.477.111-.678L20.231,5.9c.194-.194.484-.083.671.1.214.215.3.5.117.685L19.062,8.644l1.384,1.383L21.5,8.977a.453.453,0,0,1,.643.076.443.443,0,0,1,.062.629l-1.051,1.051,1.39,1.39L24.5,10.166c.18-.18.471-.1.685.118C25.371,10.471,25.481,10.761,25.288,10.955Zm.773-4.5a.913.913,0,1,1,.267-.646A.921.921,0,0,1,26.06,6.453Zm0,0" transform="translate(22.04 0) rotate(45)" fill="#f16b22"/>
</svg>
