<svg xmlns="http://www.w3.org/2000/svg" xmlns:xlink="http://www.w3.org/1999/xlink" width="64" height="64" viewBox="0 0 64 64">
  <defs>
    <clipPath id="clip-Artboard_1">
      <rect width="64" height="64"/>
    </clipPath>
  </defs>
  <g id="Artboard_1" data-name="Artboard – 1" clip-path="url(#clip-Artboard_1)">
    <g id="teacher-at-the-blackboard" transform="translate(7 -14.449)">
      <path id="Path_340" data-name="Path 340" d="M415.393,115.6a3.576,3.576,0,0,1,.995.147l5.957-7.3a1.1,1.1,0,0,1,1.548-.16,1.068,1.068,0,0,1,.135,1.5L418.139,117a3.373,3.373,0,0,1-1.357,5.055h17.111a1.536,1.536,0,0,0,1.535-1.535V101.085a1.536,1.536,0,0,0-1.535-1.535H410.535A1.536,1.536,0,0,0,409,101.085v12.762l1.388,1.757h5.005Z" transform="translate(-383.881 -75.181)" fill="#fff"/>
      <circle id="Ellipse_37" data-name="Ellipse 37" cx="6.289" cy="6.289" r="6.289" transform="translate(6.074 19.45)" fill="#fff"/>
      <g id="Group_144" data-name="Group 144" transform="translate(0 34.043)">
        <path id="Path_341" data-name="Path 341" d="M18.812,296.08a1.536,1.536,0,0,1-1.535,1.535H14.7a1.536,1.536,0,0,1-1.535-1.535V283.207a.823.823,0,0,0-.823-.823h0a.823.823,0,0,0-.823.823v12.811a1.6,1.6,0,0,1-1.6,1.6H7.395a1.536,1.536,0,0,1-1.535-1.535L5.847,265a.761.761,0,0,0-.762-.762h0a.761.761,0,0,0-.762.762v11.952a1.536,1.536,0,0,1-1.535,1.535H1.535A1.536,1.536,0,0,1,0,276.955V260.569a3.519,3.519,0,0,1,3.519-3.519H17.5a4.927,4.927,0,0,1,3.851,1.861l3.759,4.741.792,1s3.562,0,5.613.006a1.536,1.536,0,0,1,1.535,1.535v1.222a1.536,1.536,0,0,1-1.535,1.535H24.874a2.139,2.139,0,0,1-1.683-.817l-2.8-3.6a.765.765,0,0,0-.6-.295H19.6a.761.761,0,0,0-.762.762Z" transform="translate(0 -257.05)" fill="#fff"/>
      </g>
    </g>
  </g>
</svg>
