<svg xmlns="http://www.w3.org/2000/svg" width="56" height="56" viewBox="0 0 56 56">
  <g id="Group_1005" data-name="Group 1005" transform="translate(-1024 -504)">
    <g id="blackboard" transform="translate(1035.872 516)">
      <g id="Group_997" data-name="Group 997" transform="translate(0.126)">
        <g id="Group_996" data-name="Group 996">
          <path id="Path_1466" data-name="Path 1466" d="M30.737,2.354H16.888V.93a.929.929,0,1,0-1.859,0V2.354H1.225a1.1,1.1,0,0,0-1.1,1.1V6.326a1.1,1.1,0,0,0,1.1,1.1h.564V22.053a2.791,2.791,0,0,0,2.788,2.788H15.029v1.838l-2.841,3.535a.93.93,0,1,0,1.449,1.165l2.322-2.889,2.322,2.889a.929.929,0,1,0,1.449-1.165l-2.841-3.535V24.841H27.34a2.791,2.791,0,0,0,2.788-2.788V7.425h.609a1.1,1.1,0,0,0,1.1-1.1V3.453A1.1,1.1,0,0,0,30.737,2.354ZM11.749,17.674a1.278,1.278,0,0,1-.654.184q-.417,0-.494-.281l-.329-1.211H8.228L7.9,17.577q-.078.281-.494.281a1.277,1.277,0,0,1-.654-.184.521.521,0,0,1-.315-.436.529.529,0,0,1,.019-.107l1.8-5.909a.624.624,0,0,1,.354-.373,1.6,1.6,0,0,1,1.269,0,.625.625,0,0,1,.354.373l1.811,5.909a.538.538,0,0,1,.019.107A.521.521,0,0,1,11.749,17.674Zm6.951,1.2a2.092,2.092,0,0,1-.528,1.584,1.982,1.982,0,0,1-1.419.5H14.6a.775.775,0,0,1-.479-.136.394.394,0,0,1-.179-.32V14.34A.384.384,0,0,1,14.137,14a.86.86,0,0,1,.465-.121h1.986q1.937,0,1.937,1.724A1.48,1.48,0,0,1,17.7,17.12a1.575,1.575,0,0,1,.746.528A1.722,1.722,0,0,1,18.7,18.67v.2Zm3.8-3.514a1.028,1.028,0,0,0,.45-.087.516.516,0,0,0,.257-.266,1.622,1.622,0,0,0,.1-.3,3.141,3.141,0,0,0,.044-.32q.039-.455.746-.455a.91.91,0,0,1,.591.15.729.729,0,0,1,.174.567,1.791,1.791,0,0,1-.683,1.482,2.724,2.724,0,0,1-1.749.542,2.492,2.492,0,0,1-1.681-.552,2.162,2.162,0,0,1-.644-1.734V11.823a2.162,2.162,0,0,1,.644-1.734,2.492,2.492,0,0,1,1.681-.552,2.831,2.831,0,0,1,1.749.513,1.672,1.672,0,0,1,.683,1.414.729.729,0,0,1-.174.567.89.89,0,0,1-.581.15q-.726,0-.756-.455a.782.782,0,0,0-.862-.872q-.872,0-.872.969v2.567Q21.616,15.359,22.5,15.359Z" transform="translate(-0.126)" fill="#fff"/>
        </g>
      </g>
      <g id="Group_999" data-name="Group 999" transform="translate(15.445 15.192)">
        <g id="Group_998" data-name="Group 998">
          <path id="Path_1467" data-name="Path 1467" d="M248.775,245.382a.471.471,0,0,0-.407-.2h-1.017v1.346h1.017a.475.475,0,0,0,.407-.2.774.774,0,0,0,.145-.47A.8.8,0,0,0,248.775,245.382Z" transform="translate(-247.351 -245.179)" fill="#fff"/>
        </g>
      </g>
      <g id="Group_1001" data-name="Group 1001" transform="translate(15.445 17.701)">
        <g id="Group_1000" data-name="Group 1000">
          <path id="Path_1468" data-name="Path 1468" d="M248.319,285.669h-.969v1.937h.969q.775,0,.775-.891v-.155Q249.094,285.669,248.319,285.669Z" transform="translate(-247.35 -285.669)" fill="#fff"/>
        </g>
      </g>
      <g id="Group_1003" data-name="Group 1003" transform="translate(8.538 12.607)">
        <g id="Group_1002" data-name="Group 1002">
          <path id="Path_1469" data-name="Path 1469" d="M136.588,203.463l-.707,2.6H137.3Z" transform="translate(-135.881 -203.463)" fill="#fff"/>
        </g>
      </g>
    </g>
    <g id="Ellipse_92" data-name="Ellipse 92" transform="translate(1024 504)" fill="none" stroke="#fff" stroke-width="1">
      <circle cx="28" cy="28" r="28" stroke="none"/>
      <circle cx="28" cy="28" r="27.5" fill="none"/>
    </g>
  </g>
</svg>
